<svg xmlns="http://www.w3.org/2000/svg" viewBox="0 0 101.8 53.48"><defs><style>.cls-1,.cls-4{fill:#9dacb0;}.cls-2{fill:#2c3d41;}.cls-3{fill:none;}.cls-3,.cls-4{stroke:#b22722;stroke-miterlimit:10;stroke-width:0.95px;}.cls-5{fill:#b22722;}</style></defs><title>Asset 5</title><g id="Layer_2" data-name="Layer 2"><g id="Layer_3" data-name="Layer 3"><rect class="cls-1" x="0.48" width="18.47" height="27.55"/><path class="cls-2" d="M1.92,20.22l2-13.65H4.1l5.55,11.2,5.49-11.2h.22l2,13.65H16l-1.35-9.76L9.82,20.22H9.47L4.58,10.38,3.24,20.22Z"/><path class="cls-2" d="M27.46,6.23A7.07,7.07,0,0,1,32.65,8.3a6.89,6.89,0,0,1,2.09,5.09,7,7,0,0,1-2.09,5.09,6.9,6.9,0,0,1-5.08,2.08,7,7,0,0,1-5.12-2.08,6.79,6.79,0,0,1-2.09-5,7.21,7.21,0,0,1,.95-3.65,7,7,0,0,1,6.15-3.58Zm.06,1.32a5.83,5.83,0,0,0-5,2.92,5.87,5.87,0,0,0-.76,3,5.74,5.74,0,0,0,5.75,5.79,5.87,5.87,0,0,0,2.94-.77,5.55,5.55,0,0,0,2.11-2.11,5.86,5.86,0,0,0,.76-3,5.69,5.69,0,0,0-2.89-5.05A5.85,5.85,0,0,0,27.52,7.55Z"/><path class="cls-2" d="M38.5,6.57h2.72a15.88,15.88,0,0,1,3.08.19,3.5,3.5,0,0,1,2,1.19A3.44,3.44,0,0,1,47,10.2a3.62,3.62,0,0,1-.53,2A3.25,3.25,0,0,1,45,13.44a6.72,6.72,0,0,1-2.69.44l4.91,6.34H45.54l-4.9-6.34h-.78v6.34H38.5Zm1.36,1.34v4.64h2.36a5.69,5.69,0,0,0,2-.26,2.14,2.14,0,0,0,1-.83,2.33,2.33,0,0,0,.37-1.27A2.19,2.19,0,0,0,45.25,9a2,2,0,0,0-1-.8,6,6,0,0,0-2-.24Z"/><path class="cls-2" d="M50.72,6.57h1.36V20.22H50.72Z"/><path class="cls-2" d="M61.73,6.57,68.1,20.22H66.62l-2.14-4.49H58.6l-2.13,4.49H55L61.4,6.57Zm-.17,2.9-2.34,4.94h4.67Z"/><path class="cls-2" d="M71.24,6.57H74A15.88,15.88,0,0,1,77,6.76,3.44,3.44,0,0,1,79,8a3.39,3.39,0,0,1,.76,2.25,3.61,3.61,0,0,1-.52,2,3.25,3.25,0,0,1-1.5,1.28,6.72,6.72,0,0,1-2.69.44L80,20.22H78.28l-4.91-6.34H72.6v6.34H71.24ZM72.6,7.91v4.64H75a5.65,5.65,0,0,0,2-.26,2.12,2.12,0,0,0,1-.83,2.32,2.32,0,0,0,.36-1.27A2.19,2.19,0,0,0,78,9a2.09,2.09,0,0,0-1-.8,6,6,0,0,0-2-.24Z"/><path class="cls-2" d="M82.4,7.91V6.57h7.48V7.91h-3V20.22H85.45V7.91Z"/><path class="cls-2" d="M91.72,6.57h1.57l3.5,5.63,3.43-5.63h1.58L97.48,13.7v6.52H96.13V13.7Z"/><path class="cls-3" d="M9.64,40.17V35.51a.79.79,0,0,1,.77-.87h10c1.09,0,1.09-.83,1.09-.83s0-2.39,0-3.6a1,1,0,0,0-1.09-1.09H18.46"/><path class="cls-4" d="M8.57,41.27a.76.76,0,0,0-.21.52V52.27a.73.73,0,0,0,.73.73h1.09a.74.74,0,0,0,.74-.73V41.79a.73.73,0,0,0-.22-.52l.22-1.1H8.36Z"/><path class="cls-4" d="M18,31.66H1.45a1,1,0,0,1-1-1V27.55a1,1,0,0,1,1-1H18a1,1,0,0,1,1,1v3.13A1,1,0,0,1,18,31.66Z"/><path class="cls-5" d="M61.38,23.38V35H60.32V33.59a4.69,4.69,0,0,1-1.53,1.25,4.25,4.25,0,0,1-4.9-.88,4.48,4.48,0,0,1,0-6.26A4.16,4.16,0,0,1,57,26.41a4,4,0,0,1,1.87.44,4.49,4.49,0,0,1,1.48,1.32V23.38Zm-4.32,4.07a3.29,3.29,0,0,0-2.89,1.7,3.41,3.41,0,0,0-.45,1.7,3.33,3.33,0,0,0,.46,1.69,3.24,3.24,0,0,0,1.22,1.27,3.2,3.2,0,0,0,1.65.45,3.36,3.36,0,0,0,1.68-.45A3.18,3.18,0,0,0,60,32.6a3.53,3.53,0,0,0,.42-1.72,3.33,3.33,0,0,0-1-2.44A3.16,3.16,0,0,0,57.06,27.45Z"/><path class="cls-5" d="M71.71,32.25l.91.48a4.8,4.8,0,0,1-1,1.42,4,4,0,0,1-1.32.82,4.55,4.55,0,0,1-1.66.29,4,4,0,0,1-3.22-1.35A4.62,4.62,0,0,1,65.2,28a4,4,0,0,1,3.33-1.59A4.15,4.15,0,0,1,72,28a4.56,4.56,0,0,1,.93,2.88H65.33a3.38,3.38,0,0,0,.94,2.4,3,3,0,0,0,2.23.94A3.78,3.78,0,0,0,69.75,34a3.3,3.3,0,0,0,1-.6A5,5,0,0,0,71.71,32.25Zm0-2.27a3.76,3.76,0,0,0-.63-1.38,3,3,0,0,0-1.1-.84,3.35,3.35,0,0,0-1.43-.31,3.07,3.07,0,0,0-2.13.79,3.64,3.64,0,0,0-1,1.74Z"/><path class="cls-5" d="M83.87,28.37l-.85.54a3.61,3.61,0,0,0-3-1.48,3.52,3.52,0,0,0-2.55,1,3.22,3.22,0,0,0-1,2.4,3.43,3.43,0,0,0,.47,1.73,3.3,3.3,0,0,0,1.28,1.26,3.88,3.88,0,0,0,4.86-1l.85.57a4.12,4.12,0,0,1-1.62,1.41,5.19,5.19,0,0,1-2.31.5A4.61,4.61,0,0,1,76.63,34a4.14,4.14,0,0,1-1.32-3.09,4.43,4.43,0,0,1,.62-2.27A4.34,4.34,0,0,1,77.62,27a5,5,0,0,1,2.4-.59,5.18,5.18,0,0,1,1.62.26,4.59,4.59,0,0,1,1.31.66A3.57,3.57,0,0,1,83.87,28.37Z"/><path class="cls-5" d="M90.73,26.41A4.16,4.16,0,0,1,94,27.82a4.52,4.52,0,0,1-.07,6.12,4.1,4.1,0,0,1-3.15,1.32,4.14,4.14,0,0,1-3.17-1.32,4.42,4.42,0,0,1-1.22-3.08,4.32,4.32,0,0,1,1.16-3A4.15,4.15,0,0,1,90.73,26.41Zm0,1.06a3.11,3.11,0,0,0-2.32,1,3.46,3.46,0,0,0-.52,4.11,3.1,3.1,0,0,0,1.19,1.22,3.33,3.33,0,0,0,1.65.43,3.37,3.37,0,0,0,1.66-.43,3.1,3.1,0,0,0,1.19-1.22A3.49,3.49,0,0,0,93,28.47,3.11,3.11,0,0,0,90.72,27.47Z"/><path class="cls-5" d="M97.5,26.63h1.1v1.23a3.79,3.79,0,0,1,1.05-1.09,2,2,0,0,1,1.14-.36,2,2,0,0,1,1,.29l-.56.91a1.5,1.5,0,0,0-.58-.15,1.54,1.54,0,0,0-1,.45,2.75,2.75,0,0,0-.77,1.38,13.5,13.5,0,0,0-.2,2.9V35H97.5Z"/></g></g></svg>